<?xml version="1.0" encoding="UTF-8"?>
<svg id="Layer_4" data-name="Layer 4" xmlns="http://www.w3.org/2000/svg" viewBox="0 0 1000 1000">
  <defs>
    <style>
      .cls-1 {
        fill: #fff;
        stroke-width: 0px;
      }
    </style>
  </defs>
  <path class="cls-1" d="M646.09,535.41h-12.55v-20.24h16.22c3.62,0,7.02-1.41,9.6-3.98,2.57-2.57,3.98-5.93,3.98-9.46,0-2.2-.47-4.27-1.4-6.14-.05-.11-.11-.21-.16-.31l-4.62-8.63c3.1-4.57,4.74-10.16,4.74-16.45,0-9.01-3.52-16.64-10.19-22.06-6.02-4.89-13.82-7.37-23.19-7.37h-28.01c-1.44,0-2.85.23-4.19.65-8.94-9.78-21.69-15.58-35.58-15.58-6.06,0-12.01,1.14-17.68,3.38-.9.35-1.72.81-2.47,1.34-.92.13-1.83.36-2.71.71-11.73,4.64-21.05,13.54-26.23,25.07-.18.39-.35.79-.51,1.19v-2.8c0-3.71-1.45-7.21-4.11-9.87-2.64-2.63-6.13-4.07-9.84-4.07h-15.55c-3.71,0-7.21,1.45-9.86,4.1-1.64,1.64-2.81,3.61-3.47,5.75-1.02-.94-2.04-1.76-3.04-2.46-7.01-4.95-15.84-7.46-26.26-7.46s-19.25,2.51-26.26,7.46c-1.33.94-2.71,2.08-4.05,3.45-.68-.68-1.38-1.36-2.17-2.04-3.32-2.82-7.55-5.06-12.57-6.65-4.66-1.48-9.85-2.22-15.43-2.22-14.71,0-25.7,4.67-32.72,13.94-4.02,5.38-6.06,11.84-6.06,19.19v8.28c0,7.09,1.91,13.32,5.65,18.56-1.77.67-3.39,1.71-4.77,3.09-2.56,2.57-3.98,5.98-3.98,9.59v.22c0,.54.04,1.09.11,1.62l6.26,45.82c.47,3.53,2.14,6.7,4.81,9.15,2.8,2.58,6.5,4,10.4,4h10.08c3.55,0,6.85-1.11,9.52-3.2.09-.07.18-.14.27-.21.09.07.17.14.26.21,2.67,2.1,5.97,3.21,9.53,3.21h10.08c3.19,0,6.24-.97,8.78-2.73,2.39,1.76,5.28,2.73,8.28,2.73h14.83c3.39,0,6.6-1.21,9.14-3.43,2.54,2.22,5.75,3.43,9.14,3.43h14.83c2.71,0,5.3-.78,7.52-2.22,2.23,1.44,4.81,2.22,7.52,2.22h45.5c2.84,0,5.55-.85,7.85-2.43,2.3,1.58,5.01,2.43,7.85,2.43h45.5c3.62,0,7.03-1.39,9.65-3.9,2.61,2.51,6.02,3.9,9.65,3.9h42.05c3.72,0,7.22-1.45,9.86-4.1,2.63-2.64,4.08-6.13,4.08-9.84v-10.87c0-3.7-1.44-7.19-4.11-9.88-2.64-2.62-6.13-4.07-9.83-4.07ZM569.1,473.78c.13.9.36,1.81.71,2.69.73,1.86.7,3.89-.1,5.74-.8,1.84-2.26,3.26-4.12,4-.88.35-1.71.79-2.47,1.33-.91.13-1.82.37-2.72.72-.88.35-1.8.53-2.74.53-3.06,0-5.88-1.91-7-4.74-.35-.88-.79-1.71-1.33-2.47-.13-.92-.37-1.83-.72-2.71-.73-1.86-.7-3.89.1-5.74.8-1.84,2.26-3.26,4.12-4,.89-.35,1.71-.81,2.47-1.34.91-.13,1.82-.36,2.71-.71.88-.35,1.8-.53,2.73-.53,3.07,0,5.88,1.91,7,4.74.36.9.81,1.73,1.34,2.49Z"/>
  <text/>
</svg>