<?xml version="1.0" encoding="UTF-8"?>
<svg xmlns="http://www.w3.org/2000/svg" viewBox="0 0 1000 1000">
  <defs>
    <style>
      .cls-1 {
        fill: #74c380;
      }

      .cls-1, .cls-2, .cls-3, .cls-4, .cls-5, .cls-6 {
        stroke-width: 0px;
      }

      .cls-2 {
        fill: #ffe478;
      }

      .cls-3 {
        fill: #fff;
      }

      .cls-4 {
        fill: #231f20;
      }

      .cls-5 {
        fill: #eb564b;
      }

      .cls-6 {
        fill: #6472b6;
      }
    </style>
  </defs>
  <g id="Layer_4" data-name="Layer 4">
    <path class="cls-3" d="M646.09,535.41h-12.55v-20.24h16.22c3.62,0,7.02-1.41,9.6-3.98,2.57-2.57,3.98-5.93,3.98-9.46,0-2.2-.47-4.27-1.4-6.14-.05-.11-.11-.21-.16-.31l-4.62-8.63c3.1-4.57,4.74-10.16,4.74-16.45,0-9.01-3.52-16.64-10.19-22.06-6.02-4.89-13.82-7.37-23.19-7.37h-28.01c-1.44,0-2.85.23-4.19.65-8.94-9.78-21.69-15.58-35.58-15.58-6.06,0-12.01,1.14-17.68,3.38-.9.35-1.72.81-2.47,1.34-.92.13-1.83.36-2.71.71-11.73,4.64-21.05,13.54-26.23,25.07-.18.39-.35.79-.51,1.19v-2.8c0-3.71-1.45-7.21-4.11-9.87-2.64-2.63-6.13-4.07-9.84-4.07h-15.55c-3.71,0-7.21,1.45-9.86,4.1-1.64,1.64-2.81,3.61-3.47,5.75-1.02-.94-2.04-1.76-3.04-2.46-7.01-4.95-15.84-7.46-26.26-7.46s-19.25,2.51-26.26,7.46c-1.33.94-2.71,2.08-4.05,3.45-.68-.68-1.38-1.36-2.17-2.04-3.32-2.82-7.55-5.06-12.57-6.65-4.66-1.48-9.85-2.22-15.43-2.22-14.71,0-25.7,4.67-32.72,13.94-4.02,5.38-6.06,11.84-6.06,19.19v8.28c0,7.09,1.91,13.32,5.65,18.56-1.77.67-3.39,1.71-4.77,3.09-2.56,2.57-3.98,5.98-3.98,9.59v.22c0,.54.04,1.09.11,1.62l6.26,45.82c.47,3.53,2.14,6.7,4.81,9.15,2.8,2.58,6.5,4,10.4,4h10.08c3.55,0,6.85-1.11,9.52-3.2.09-.07.18-.14.27-.21.09.07.17.14.26.21,2.67,2.1,5.97,3.21,9.53,3.21h10.08c3.19,0,6.24-.97,8.78-2.73,2.39,1.76,5.28,2.73,8.28,2.73h14.83c3.39,0,6.6-1.21,9.14-3.43,2.54,2.22,5.75,3.43,9.14,3.43h14.83c2.71,0,5.3-.78,7.52-2.22,2.23,1.44,4.81,2.22,7.52,2.22h45.5c2.84,0,5.55-.85,7.85-2.43,2.3,1.58,5.01,2.43,7.85,2.43h45.5c3.62,0,7.03-1.39,9.65-3.9,2.61,2.51,6.02,3.9,9.65,3.9h42.05c3.72,0,7.22-1.45,9.86-4.1,2.63-2.64,4.08-6.13,4.08-9.84v-10.87c0-3.7-1.44-7.19-4.11-9.88-2.64-2.62-6.13-4.07-9.83-4.07ZM569.1,473.78c.13.9.36,1.81.71,2.69.73,1.86.7,3.89-.1,5.74-.8,1.84-2.26,3.26-4.12,4-.88.35-1.71.79-2.47,1.33-.91.13-1.82.37-2.72.72-.88.35-1.8.53-2.74.53-3.06,0-5.88-1.91-7-4.74-.35-.88-.79-1.71-1.33-2.47-.13-.92-.37-1.83-.72-2.71-.73-1.86-.7-3.89.1-5.74.8-1.84,2.26-3.26,4.12-4,.89-.35,1.71-.81,2.47-1.34.91-.13,1.82-.36,2.71-.71.88-.35,1.8-.53,2.73-.53,3.07,0,5.88,1.91,7,4.74.36.9.81,1.73,1.34,2.49Z"/>
    <text/>
  </g>
  <g id="Layer_1" data-name="Layer 1">
    <g>
      <g>
        <path class="cls-1" d="M537.47,483.26l-15.54,6.14c-7.34-18.57,1.8-39.65,20.37-46.99l6.14,15.54c-10,3.95-14.92,15.3-10.97,25.3Z"/>
        <path class="cls-2" d="M570.96,514.96c-18.57,7.34-39.65-1.8-46.99-20.37l15.54-6.14c3.95,10,15.3,14.92,25.3,10.97l6.14,15.54Z"/>
        <path class="cls-6" d="M576.14,512.91l-6.14-15.54c10-3.95,14.92-15.3,10.97-25.3l15.54-6.14c7.34,18.57-1.8,39.65-20.37,46.99Z"/>
        <path class="cls-5" d="M594.46,460.74l-15.54,6.14c-3.95-10-15.3-14.92-25.3-10.97l-6.14-15.54c18.57-7.34,39.65,1.8,46.99,20.37Z"/>
      </g>
      <path class="cls-4" d="M371.19,472.52v10.89c0,1.86.66,3.29,1.98,4.29,1.32,1,3.05,1.5,5.18,1.5s3.68-.32,4.64-.95c.96-.63,1.76-1.56,2.41-2.79.65-1.23,1.5-1.84,2.56-1.84h15.55c.43,0,.8.15,1.12.46.31.31.47.67.47,1.1,0,4.39-2.11,8.41-6.34,12.04-2.11,1.8-4.92,3.25-8.42,4.36-3.5,1.11-7.63,1.66-12.38,1.66s-9.08-.71-13-2.14c-3.91-1.43-7.09-3.77-9.54-7.02-2.45-3.25-3.67-7.24-3.67-11.97v-8.28c0-4.73,1.22-8.73,3.67-12,4.61-6.08,12.31-9.13,23.11-9.13,4.37,0,8.3.56,11.81,1.67,3.5,1.11,6.31,2.56,8.42,4.36,4.22,3.64,6.34,7.65,6.34,12.04,0,.43-.16.79-.47,1.1-.31.31-.68.46-1.12.46h-15.55c-1.06,0-1.91-.61-2.56-1.84-.65-1.23-1.45-2.16-2.41-2.79-.96-.63-2.51-.95-4.64-.95s-3.86.5-5.18,1.5c-1.32,1-1.98,2.43-1.98,4.29Z"/>
      <path class="cls-4" d="M465.8,473.69v8.56c0,4.82-1.2,8.85-3.6,12.08-2.4,3.23-5.54,5.52-9.43,6.88-3.89,1.36-8.47,2.03-13.75,2.03s-9.86-.68-13.75-2.03c-3.89-1.36-7.03-3.65-9.43-6.88-2.4-3.23-3.6-7.3-3.6-12.22v-8.28c0-7.07,2.48-12.35,7.45-15.86,4.97-3.51,11.41-5.27,19.33-5.27s14.36,1.76,19.33,5.27c4.97,3.51,7.45,8.75,7.45,15.73ZM431.67,472.52v10.89c0,1.86.66,3.29,1.98,4.29,1.32,1,3.11,1.5,5.36,1.5s4.04-.51,5.36-1.53c1.32-1.02,1.98-2.46,1.98-4.32v-10.76c0-1.86-.66-3.3-1.98-4.32-1.32-1.02-3.11-1.53-5.36-1.53s-4.04.5-5.36,1.5c-1.32,1-1.98,2.43-1.98,4.29Z"/>
      <path class="cls-4" d="M499.14,488.41h24.55c.53,0,.98.19,1.37.58.38.38.58.84.58,1.37v10.87c0,.53-.19.98-.58,1.37-.38.38-.84.58-1.37.58h-42.05c-.53,0-.98-.19-1.37-.58-.38-.38-.58-.84-.58-1.37v-46.51c0-.53.19-.98.58-1.37.38-.38.84-.58,1.37-.58h15.55c.53,0,.98.19,1.37.58.38.38.58.84.58,1.37v33.7Z"/>
      <path class="cls-4" d="M651.2,500.94c.1.19.14.46.14.79s-.16.66-.47.97c-.31.31-.68.47-1.12.47h-16.34c-1.44,0-2.45-.6-3.02-1.8l-6.34-14.26h-6.05v14.11c0,.53-.19.98-.58,1.37-.38.38-.84.58-1.37.58h-15.55c-.53,0-.98-.19-1.37-.58-.38-.38-.58-.84-.58-1.37v-46.51c0-.53.19-.98.58-1.37.38-.38.84-.58,1.37-.58h28.01c6.58,0,11.78,1.56,15.62,4.68,3.84,3.12,5.76,7.37,5.76,12.74,0,6.53-2.52,11.26-7.56,14.18l8.86,16.56ZM618.01,466.16v7.63h9c1.05,0,1.87-.35,2.45-1.04.58-.7.86-1.57.86-2.63s-.28-1.98-.83-2.77-1.38-1.19-2.48-1.19h-9Z"/>
      <path class="cls-4" d="M368.31,562.17h-10.08c-.91,0-1.67-.28-2.27-.83-.6-.55-.95-1.19-1.04-1.91l-6.26-45.86v-.22c0-.43.16-.8.47-1.12.31-.31.68-.47,1.12-.47h12.38c.96,0,1.74.29,2.34.86.6.58.95,1.3,1.04,2.16l2.3,22.03,4.18-11.45c.14-.48.49-.95,1.04-1.4.55-.46,1.26-.68,2.12-.68h4.9c.86,0,1.57.23,2.12.68.55.46.9.92,1.04,1.4l4.18,11.45,2.3-22.03c.1-.86.44-1.58,1.04-2.16.6-.58,1.38-.86,2.34-.86h12.38c.43,0,.8.16,1.12.47.31.31.47.68.47,1.12v.22l-6.26,45.86c-.1.72-.44,1.36-1.04,1.91-.6.55-1.36.83-2.27.83h-10.08c-.86,0-1.57-.22-2.12-.65-.55-.43-.9-.86-1.04-1.3l-6.62-15.19-6.62,15.19c-.14.43-.49.86-1.04,1.3-.55.43-1.26.65-2.12.65Z"/>
      <path class="cls-4" d="M448.16,511.77h14.83c.53,0,.98.19,1.37.58.38.38.58.84.58,1.37v46.51c0,.53-.19.98-.58,1.37s-.84.58-1.37.58h-14.83c-.53,0-.98-.19-1.37-.58-.38-.38-.58-.84-.58-1.37v-15.34h-14.4v15.34c0,.53-.19.98-.58,1.37-.38.38-.84.58-1.37.58h-14.83c-.53,0-.98-.18-1.37-.54-.38-.36-.58-.83-.58-1.4v-46.51c0-.53.19-.98.58-1.37s.84-.58,1.37-.58h14.83c.53,0,.98.19,1.37.58.38.38.58.84.58,1.37v14.76h14.4v-14.76c0-.53.19-.98.58-1.37s.84-.58,1.37-.58Z"/>
      <path class="cls-4" d="M494.82,548.13h28.73c.53,0,.98.19,1.37.58.38.38.58.84.58,1.37v10.15c0,.53-.19.98-.58,1.37s-.84.58-1.37.58h-45.5c-.53,0-.98-.19-1.37-.58-.38-.38-.58-.84-.58-1.37v-46.51c0-.53.19-.98.58-1.37.38-.38.84-.58,1.37-.58h44.78c.53,0,.98.19,1.37.58.38.38.58.84.58,1.37v10.15c0,.53-.19.98-.58,1.37s-.84.58-1.37.58h-28.01v4.54h24.05c.53,0,.98.19,1.37.58.38.38.58.84.58,1.37v9.36c0,.53-.19.98-.58,1.37s-.84.58-1.37.58h-24.05v4.54Z"/>
      <path class="cls-4" d="M556.02,548.13h28.73c.53,0,.98.19,1.37.58.38.38.58.84.58,1.37v10.15c0,.53-.19.98-.58,1.37s-.84.58-1.37.58h-45.5c-.53,0-.98-.19-1.37-.58-.38-.38-.58-.84-.58-1.37v-46.51c0-.53.19-.98.58-1.37.38-.38.84-.58,1.37-.58h44.78c.53,0,.98.19,1.37.58.38.38.58.84.58,1.37v10.15c0,.53-.19.98-.58,1.37-.38.38-.84.58-1.37.58h-28.01v4.54h24.05c.53,0,.98.19,1.37.58.38.38.58.84.58,1.37v9.36c0,.53-.19.98-.58,1.37s-.84.58-1.37.58h-24.05v4.54Z"/>
      <path class="cls-4" d="M621.53,547.41h24.55c.53,0,.98.19,1.37.58.38.38.58.84.58,1.37v10.87c0,.53-.19.98-.58,1.37-.38.38-.84.58-1.37.58h-42.05c-.53,0-.98-.19-1.37-.58-.38-.38-.58-.84-.58-1.37v-46.51c0-.53.19-.98.58-1.37s.84-.58,1.37-.58h15.55c.53,0,.98.19,1.37.58.38.38.58.84.58,1.37v33.7Z"/>
    </g>
    <text/>
  </g>
</svg>